<mxfile host="app.diagrams.net" modified="2023-11-05T13:27:51.554Z" agent="Mozilla/5.0 (Windows NT 10.0; Win64; x64) AppleWebKit/537.36 (KHTML, like Gecko) Chrome/119.0.0.0 Safari/537.36 Edg/119.0.0.0" etag="vNypNGIrkictHmdKHJ7Y" version="22.0.8" type="device">
  <diagram name="Page-1" id="bZsAR1skWYNJugg0s8mh">
    <mxGraphModel dx="1195" dy="1880" grid="1" gridSize="10" guides="1" tooltips="1" connect="1" arrows="1" fold="1" page="1" pageScale="1" pageWidth="827" pageHeight="1169" math="0" shadow="0">
      <root>
        <mxCell id="0" />
        <mxCell id="1" parent="0" />
        <mxCell id="6u_prL7bI_ugvkIZMt2R-1" value="Customer" style="shape=umlActor;verticalLabelPosition=bottom;verticalAlign=top;html=1;outlineConnect=0;" vertex="1" parent="1">
          <mxGeometry x="120" y="330" width="30" height="60" as="geometry" />
        </mxCell>
        <mxCell id="6u_prL7bI_ugvkIZMt2R-3" value="Admin" style="shape=umlActor;verticalLabelPosition=bottom;verticalAlign=top;html=1;outlineConnect=0;" vertex="1" parent="1">
          <mxGeometry x="810" y="370" width="30" height="60" as="geometry" />
        </mxCell>
        <mxCell id="6u_prL7bI_ugvkIZMt2R-5" value="Cart" style="ellipse;whiteSpace=wrap;html=1;" vertex="1" parent="1">
          <mxGeometry x="350" y="-30" width="120" height="80" as="geometry" />
        </mxCell>
        <mxCell id="6u_prL7bI_ugvkIZMt2R-6" value="Login system" style="ellipse;whiteSpace=wrap;html=1;" vertex="1" parent="1">
          <mxGeometry x="400" y="320" width="120" height="80" as="geometry" />
        </mxCell>
        <mxCell id="6u_prL7bI_ugvkIZMt2R-10" value="Chat" style="ellipse;whiteSpace=wrap;html=1;" vertex="1" parent="1">
          <mxGeometry x="280" y="490" width="120" height="80" as="geometry" />
        </mxCell>
        <mxCell id="6u_prL7bI_ugvkIZMt2R-11" value="Pengelolaan Produk" style="ellipse;whiteSpace=wrap;html=1;" vertex="1" parent="1">
          <mxGeometry x="650" y="610" width="120" height="80" as="geometry" />
        </mxCell>
        <mxCell id="6u_prL7bI_ugvkIZMt2R-12" value="Pengelolaan Order(Approve Order)" style="ellipse;whiteSpace=wrap;html=1;" vertex="1" parent="1">
          <mxGeometry x="540" y="500" width="90" height="70" as="geometry" />
        </mxCell>
        <mxCell id="6u_prL7bI_ugvkIZMt2R-18" value="" style="endArrow=none;html=1;rounded=0;entryX=1;entryY=0.5;entryDx=0;entryDy=0;" edge="1" parent="1" target="6u_prL7bI_ugvkIZMt2R-6">
          <mxGeometry width="50" height="50" relative="1" as="geometry">
            <mxPoint x="800" y="390" as="sourcePoint" />
            <mxPoint x="530" y="420" as="targetPoint" />
          </mxGeometry>
        </mxCell>
        <mxCell id="6u_prL7bI_ugvkIZMt2R-23" value="" style="endArrow=none;html=1;rounded=0;exitX=0.5;exitY=0.5;exitDx=0;exitDy=0;exitPerimeter=0;entryX=0;entryY=0.5;entryDx=0;entryDy=0;" edge="1" parent="1" source="6u_prL7bI_ugvkIZMt2R-1" target="6u_prL7bI_ugvkIZMt2R-6">
          <mxGeometry width="50" height="50" relative="1" as="geometry">
            <mxPoint x="390" y="440" as="sourcePoint" />
            <mxPoint x="440" y="390" as="targetPoint" />
          </mxGeometry>
        </mxCell>
        <mxCell id="6u_prL7bI_ugvkIZMt2R-24" value="Pengelolaan Kategori" style="ellipse;whiteSpace=wrap;html=1;" vertex="1" parent="1">
          <mxGeometry x="600" y="280" width="80" height="60" as="geometry" />
        </mxCell>
        <mxCell id="6u_prL7bI_ugvkIZMt2R-25" value="Pengelolaan Users" style="ellipse;whiteSpace=wrap;html=1;" vertex="1" parent="1">
          <mxGeometry x="360" y="400" width="130" height="80" as="geometry" />
        </mxCell>
        <mxCell id="6u_prL7bI_ugvkIZMt2R-26" value="" style="endArrow=none;html=1;rounded=0;exitX=0.99;exitY=0.554;exitDx=0;exitDy=0;exitPerimeter=0;" edge="1" parent="1" source="6u_prL7bI_ugvkIZMt2R-25" target="6u_prL7bI_ugvkIZMt2R-3">
          <mxGeometry width="50" height="50" relative="1" as="geometry">
            <mxPoint x="630" y="360" as="sourcePoint" />
            <mxPoint x="680" y="310" as="targetPoint" />
          </mxGeometry>
        </mxCell>
        <mxCell id="6u_prL7bI_ugvkIZMt2R-29" value="" style="endArrow=none;html=1;rounded=0;exitX=0;exitY=1;exitDx=0;exitDy=0;exitPerimeter=0;entryX=1;entryY=0;entryDx=0;entryDy=0;" edge="1" parent="1" source="6u_prL7bI_ugvkIZMt2R-3" target="6u_prL7bI_ugvkIZMt2R-11">
          <mxGeometry width="50" height="50" relative="1" as="geometry">
            <mxPoint x="630" y="360" as="sourcePoint" />
            <mxPoint x="680" y="310" as="targetPoint" />
          </mxGeometry>
        </mxCell>
        <mxCell id="6u_prL7bI_ugvkIZMt2R-31" value="" style="endArrow=none;html=1;rounded=0;exitX=1;exitY=0.5;exitDx=0;exitDy=0;" edge="1" parent="1" source="6u_prL7bI_ugvkIZMt2R-24">
          <mxGeometry width="50" height="50" relative="1" as="geometry">
            <mxPoint x="705" y="340" as="sourcePoint" />
            <mxPoint x="800" y="380" as="targetPoint" />
          </mxGeometry>
        </mxCell>
        <mxCell id="6u_prL7bI_ugvkIZMt2R-33" value="" style="endArrow=none;html=1;rounded=0;" edge="1" parent="1" source="6u_prL7bI_ugvkIZMt2R-12" target="6u_prL7bI_ugvkIZMt2R-3">
          <mxGeometry width="50" height="50" relative="1" as="geometry">
            <mxPoint x="550" y="360" as="sourcePoint" />
            <mxPoint x="600" y="310" as="targetPoint" />
          </mxGeometry>
        </mxCell>
        <mxCell id="6u_prL7bI_ugvkIZMt2R-34" value="" style="endArrow=none;html=1;rounded=0;" edge="1" parent="1" source="6u_prL7bI_ugvkIZMt2R-10" target="6u_prL7bI_ugvkIZMt2R-3">
          <mxGeometry width="50" height="50" relative="1" as="geometry">
            <mxPoint x="420" y="440" as="sourcePoint" />
            <mxPoint x="470" y="390" as="targetPoint" />
          </mxGeometry>
        </mxCell>
        <mxCell id="6u_prL7bI_ugvkIZMt2R-35" value="" style="endArrow=none;html=1;rounded=0;" edge="1" parent="1" source="6u_prL7bI_ugvkIZMt2R-1" target="6u_prL7bI_ugvkIZMt2R-10">
          <mxGeometry width="50" height="50" relative="1" as="geometry">
            <mxPoint x="420" y="440" as="sourcePoint" />
            <mxPoint x="470" y="390" as="targetPoint" />
          </mxGeometry>
        </mxCell>
        <mxCell id="6u_prL7bI_ugvkIZMt2R-36" value="" style="endArrow=none;html=1;rounded=0;" edge="1" parent="1" source="6u_prL7bI_ugvkIZMt2R-1" target="6u_prL7bI_ugvkIZMt2R-5">
          <mxGeometry width="50" height="50" relative="1" as="geometry">
            <mxPoint x="420" y="380" as="sourcePoint" />
            <mxPoint x="470" y="330" as="targetPoint" />
          </mxGeometry>
        </mxCell>
        <mxCell id="6u_prL7bI_ugvkIZMt2R-38" value="Login" style="ellipse;whiteSpace=wrap;html=1;" vertex="1" parent="1">
          <mxGeometry x="220" y="270" width="120" height="80" as="geometry" />
        </mxCell>
        <mxCell id="6u_prL7bI_ugvkIZMt2R-40" value="Logout" style="ellipse;whiteSpace=wrap;html=1;" vertex="1" parent="1">
          <mxGeometry x="350" y="200" width="120" height="80" as="geometry" />
        </mxCell>
        <mxCell id="6u_prL7bI_ugvkIZMt2R-42" value="Register" style="ellipse;whiteSpace=wrap;html=1;" vertex="1" parent="1">
          <mxGeometry x="490" y="200" width="120" height="80" as="geometry" />
        </mxCell>
        <mxCell id="6u_prL7bI_ugvkIZMt2R-43" value="&amp;lt;&amp;lt;include&amp;gt;&amp;gt;" style="html=1;verticalAlign=bottom;labelBackgroundColor=none;endArrow=open;endFill=0;dashed=1;rounded=0;exitX=0.5;exitY=1;exitDx=0;exitDy=0;entryX=0.5;entryY=0;entryDx=0;entryDy=0;" edge="1" parent="1" source="6u_prL7bI_ugvkIZMt2R-40" target="6u_prL7bI_ugvkIZMt2R-6">
          <mxGeometry width="160" relative="1" as="geometry">
            <mxPoint x="390" y="340" as="sourcePoint" />
            <mxPoint x="550" y="340" as="targetPoint" />
          </mxGeometry>
        </mxCell>
        <mxCell id="6u_prL7bI_ugvkIZMt2R-44" value="&amp;lt;&amp;lt;include&amp;gt;&amp;gt;" style="html=1;verticalAlign=bottom;labelBackgroundColor=none;endArrow=open;endFill=0;dashed=1;rounded=0;exitX=1;exitY=1;exitDx=0;exitDy=0;entryX=0.05;entryY=0.278;entryDx=0;entryDy=0;entryPerimeter=0;" edge="1" parent="1" source="6u_prL7bI_ugvkIZMt2R-38" target="6u_prL7bI_ugvkIZMt2R-6">
          <mxGeometry x="0.1543" y="4" width="160" relative="1" as="geometry">
            <mxPoint x="484" y="280" as="sourcePoint" />
            <mxPoint x="470" y="330" as="targetPoint" />
            <mxPoint as="offset" />
          </mxGeometry>
        </mxCell>
        <mxCell id="6u_prL7bI_ugvkIZMt2R-45" value="&amp;lt;&amp;lt;include&amp;gt;&amp;gt;" style="html=1;verticalAlign=bottom;labelBackgroundColor=none;endArrow=open;endFill=0;dashed=1;rounded=0;" edge="1" parent="1" source="6u_prL7bI_ugvkIZMt2R-42" target="6u_prL7bI_ugvkIZMt2R-6">
          <mxGeometry x="-0.0067" y="-19" width="160" relative="1" as="geometry">
            <mxPoint x="372" y="308" as="sourcePoint" />
            <mxPoint x="416" y="352" as="targetPoint" />
            <mxPoint as="offset" />
          </mxGeometry>
        </mxCell>
        <mxCell id="6u_prL7bI_ugvkIZMt2R-47" value="Image" style="ellipse;whiteSpace=wrap;html=1;" vertex="1" parent="1">
          <mxGeometry x="414" y="580" width="120" height="80" as="geometry" />
        </mxCell>
        <mxCell id="6u_prL7bI_ugvkIZMt2R-48" value="Category" style="ellipse;whiteSpace=wrap;html=1;" vertex="1" parent="1">
          <mxGeometry x="440" y="690" width="120" height="80" as="geometry" />
        </mxCell>
        <mxCell id="6u_prL7bI_ugvkIZMt2R-49" value="Stock" style="ellipse;whiteSpace=wrap;html=1;" vertex="1" parent="1">
          <mxGeometry x="590" y="750" width="120" height="80" as="geometry" />
        </mxCell>
        <mxCell id="6u_prL7bI_ugvkIZMt2R-50" value="&amp;lt;&amp;lt;include&amp;gt;&amp;gt;" style="html=1;verticalAlign=bottom;labelBackgroundColor=none;endArrow=open;endFill=0;dashed=1;rounded=0;exitX=1;exitY=0.5;exitDx=0;exitDy=0;entryX=0;entryY=0.5;entryDx=0;entryDy=0;" edge="1" parent="1" source="6u_prL7bI_ugvkIZMt2R-47" target="6u_prL7bI_ugvkIZMt2R-11">
          <mxGeometry x="-0.0935" y="3" width="160" relative="1" as="geometry">
            <mxPoint x="410" y="620" as="sourcePoint" />
            <mxPoint x="570" y="620" as="targetPoint" />
            <mxPoint y="1" as="offset" />
          </mxGeometry>
        </mxCell>
        <mxCell id="6u_prL7bI_ugvkIZMt2R-51" value="&amp;lt;&amp;lt;include&amp;gt;&amp;gt;" style="html=1;verticalAlign=bottom;labelBackgroundColor=none;endArrow=open;endFill=0;dashed=1;rounded=0;exitX=0.976;exitY=0.37;exitDx=0;exitDy=0;exitPerimeter=0;" edge="1" parent="1" source="6u_prL7bI_ugvkIZMt2R-48" target="6u_prL7bI_ugvkIZMt2R-11">
          <mxGeometry width="160" relative="1" as="geometry">
            <mxPoint x="430" y="680" as="sourcePoint" />
            <mxPoint x="498" y="663" as="targetPoint" />
          </mxGeometry>
        </mxCell>
        <mxCell id="6u_prL7bI_ugvkIZMt2R-52" value="&amp;lt;&amp;lt;include&amp;gt;&amp;gt;" style="html=1;verticalAlign=bottom;labelBackgroundColor=none;endArrow=open;endFill=0;dashed=1;rounded=0;exitX=0.775;exitY=0.061;exitDx=0;exitDy=0;entryX=0.5;entryY=1;entryDx=0;entryDy=0;exitPerimeter=0;" edge="1" parent="1" source="6u_prL7bI_ugvkIZMt2R-49" target="6u_prL7bI_ugvkIZMt2R-11">
          <mxGeometry x="-0.2984" y="-12" width="160" relative="1" as="geometry">
            <mxPoint x="500" y="770" as="sourcePoint" />
            <mxPoint x="540" y="675" as="targetPoint" />
            <mxPoint as="offset" />
          </mxGeometry>
        </mxCell>
        <mxCell id="6u_prL7bI_ugvkIZMt2R-53" value="Details Product" style="ellipse;whiteSpace=wrap;html=1;" vertex="1" parent="1">
          <mxGeometry x="360" y="70" width="120" height="80" as="geometry" />
        </mxCell>
        <mxCell id="6u_prL7bI_ugvkIZMt2R-54" value="" style="endArrow=none;html=1;rounded=0;" edge="1" parent="1" source="6u_prL7bI_ugvkIZMt2R-1" target="6u_prL7bI_ugvkIZMt2R-53">
          <mxGeometry width="50" height="50" relative="1" as="geometry">
            <mxPoint x="420" y="300" as="sourcePoint" />
            <mxPoint x="470" y="250" as="targetPoint" />
          </mxGeometry>
        </mxCell>
        <mxCell id="6u_prL7bI_ugvkIZMt2R-55" value="" style="endArrow=none;html=1;rounded=0;exitX=0.5;exitY=0;exitDx=0;exitDy=0;exitPerimeter=0;entryX=1;entryY=0.5;entryDx=0;entryDy=0;" edge="1" parent="1" source="6u_prL7bI_ugvkIZMt2R-3" target="6u_prL7bI_ugvkIZMt2R-53">
          <mxGeometry width="50" height="50" relative="1" as="geometry">
            <mxPoint x="420" y="300" as="sourcePoint" />
            <mxPoint x="470" y="250" as="targetPoint" />
          </mxGeometry>
        </mxCell>
        <mxCell id="6u_prL7bI_ugvkIZMt2R-56" value="Checkout" style="ellipse;whiteSpace=wrap;html=1;" vertex="1" parent="1">
          <mxGeometry x="180" y="-10" width="120" height="80" as="geometry" />
        </mxCell>
        <mxCell id="6u_prL7bI_ugvkIZMt2R-57" value="&amp;lt;&amp;lt;include&amp;gt;&amp;gt;" style="html=1;verticalAlign=bottom;labelBackgroundColor=none;endArrow=open;endFill=0;dashed=1;rounded=0;exitX=1;exitY=0.5;exitDx=0;exitDy=0;" edge="1" parent="1" source="6u_prL7bI_ugvkIZMt2R-56" target="6u_prL7bI_ugvkIZMt2R-5">
          <mxGeometry width="160" relative="1" as="geometry">
            <mxPoint x="120" y="80" as="sourcePoint" />
            <mxPoint x="280" y="80" as="targetPoint" />
          </mxGeometry>
        </mxCell>
        <mxCell id="6u_prL7bI_ugvkIZMt2R-58" value="Pengelolaan Payment" style="ellipse;whiteSpace=wrap;html=1;" vertex="1" parent="1">
          <mxGeometry x="670" y="100" width="120" height="80" as="geometry" />
        </mxCell>
        <mxCell id="6u_prL7bI_ugvkIZMt2R-59" value="" style="endArrow=none;html=1;rounded=0;exitX=0.5;exitY=0;exitDx=0;exitDy=0;exitPerimeter=0;entryX=0.5;entryY=1;entryDx=0;entryDy=0;" edge="1" parent="1" source="6u_prL7bI_ugvkIZMt2R-3" target="6u_prL7bI_ugvkIZMt2R-58">
          <mxGeometry width="50" height="50" relative="1" as="geometry">
            <mxPoint x="370" y="370" as="sourcePoint" />
            <mxPoint x="420" y="320" as="targetPoint" />
          </mxGeometry>
        </mxCell>
        <mxCell id="6u_prL7bI_ugvkIZMt2R-60" value="Laporan barang &amp;amp; penjualan" style="ellipse;whiteSpace=wrap;html=1;" vertex="1" parent="1">
          <mxGeometry x="810" y="160" width="120" height="80" as="geometry" />
        </mxCell>
        <mxCell id="6u_prL7bI_ugvkIZMt2R-64" value="address" style="ellipse;whiteSpace=wrap;html=1;" vertex="1" parent="1">
          <mxGeometry x="140" y="110" width="120" height="80" as="geometry" />
        </mxCell>
        <mxCell id="6u_prL7bI_ugvkIZMt2R-67" value="&amp;lt;&amp;lt;include&amp;gt;&amp;gt;" style="html=1;verticalAlign=bottom;labelBackgroundColor=none;endArrow=open;endFill=0;dashed=1;rounded=0;exitX=0.5;exitY=0;exitDx=0;exitDy=0;entryX=0.235;entryY=1.003;entryDx=0;entryDy=0;entryPerimeter=0;" edge="1" parent="1" source="6u_prL7bI_ugvkIZMt2R-64" target="6u_prL7bI_ugvkIZMt2R-56">
          <mxGeometry width="160" relative="1" as="geometry">
            <mxPoint x="290" y="130" as="sourcePoint" />
            <mxPoint x="235" y="163" as="targetPoint" />
          </mxGeometry>
        </mxCell>
        <mxCell id="6u_prL7bI_ugvkIZMt2R-68" value="" style="endArrow=none;html=1;rounded=0;exitX=0.5;exitY=0;exitDx=0;exitDy=0;exitPerimeter=0;entryX=0.5;entryY=1;entryDx=0;entryDy=0;" edge="1" parent="1" source="6u_prL7bI_ugvkIZMt2R-3" target="6u_prL7bI_ugvkIZMt2R-60">
          <mxGeometry width="50" height="50" relative="1" as="geometry">
            <mxPoint x="480" y="390" as="sourcePoint" />
            <mxPoint x="530" y="340" as="targetPoint" />
          </mxGeometry>
        </mxCell>
        <mxCell id="6u_prL7bI_ugvkIZMt2R-69" value="" style="endArrow=none;html=1;rounded=0;entryX=0;entryY=0.5;entryDx=0;entryDy=0;" edge="1" parent="1" source="6u_prL7bI_ugvkIZMt2R-1" target="6u_prL7bI_ugvkIZMt2R-25">
          <mxGeometry width="50" height="50" relative="1" as="geometry">
            <mxPoint x="690" y="470" as="sourcePoint" />
            <mxPoint x="740" y="420" as="targetPoint" />
          </mxGeometry>
        </mxCell>
        <mxCell id="6u_prL7bI_ugvkIZMt2R-70" value="Pengelolaan Roles" style="ellipse;whiteSpace=wrap;html=1;" vertex="1" parent="1">
          <mxGeometry x="635" y="530" width="90" height="70" as="geometry" />
        </mxCell>
        <mxCell id="6u_prL7bI_ugvkIZMt2R-72" value="" style="endArrow=none;html=1;rounded=0;exitX=0.765;exitY=0.085;exitDx=0;exitDy=0;exitPerimeter=0;" edge="1" parent="1" source="6u_prL7bI_ugvkIZMt2R-70" target="6u_prL7bI_ugvkIZMt2R-3">
          <mxGeometry width="50" height="50" relative="1" as="geometry">
            <mxPoint x="720" y="590" as="sourcePoint" />
            <mxPoint x="770" y="540" as="targetPoint" />
          </mxGeometry>
        </mxCell>
        <mxCell id="6u_prL7bI_ugvkIZMt2R-74" value="Feedback" style="ellipse;whiteSpace=wrap;html=1;" vertex="1" parent="1">
          <mxGeometry x="240" y="585" width="120" height="80" as="geometry" />
        </mxCell>
        <mxCell id="6u_prL7bI_ugvkIZMt2R-75" value="" style="endArrow=none;html=1;rounded=0;" edge="1" parent="1" source="6u_prL7bI_ugvkIZMt2R-74" target="6u_prL7bI_ugvkIZMt2R-1">
          <mxGeometry width="50" height="50" relative="1" as="geometry">
            <mxPoint x="480" y="440" as="sourcePoint" />
            <mxPoint x="530" y="390" as="targetPoint" />
          </mxGeometry>
        </mxCell>
        <mxCell id="6u_prL7bI_ugvkIZMt2R-76" value="" style="endArrow=none;html=1;rounded=0;exitX=0.5;exitY=0;exitDx=0;exitDy=0;exitPerimeter=0;entryX=1;entryY=0.5;entryDx=0;entryDy=0;" edge="1" parent="1" source="6u_prL7bI_ugvkIZMt2R-3" target="6u_prL7bI_ugvkIZMt2R-5">
          <mxGeometry width="50" height="50" relative="1" as="geometry">
            <mxPoint x="470" y="220" as="sourcePoint" />
            <mxPoint x="810" y="-20" as="targetPoint" />
          </mxGeometry>
        </mxCell>
      </root>
    </mxGraphModel>
  </diagram>
</mxfile>
